<svg width="800" height="268" viewBox="0 0 800 268" xmlns="http://www.w3.org/2000/svg" xmlns:xlink="http://www.w3.org/1999/xlink">
    <linearGradient id="linearGradient1" x1="0" y1="134.665138" x2="798.514103" y2="134.665138" gradientUnits="userSpaceOnUse">
        <stop offset="0" stop-color="#2b41d1" stop-opacity="1"/>
        <stop offset="0.496954" stop-color="#00a1fe" stop-opacity="1"/>
        <stop offset="1" stop-color="#cd00be" stop-opacity="1"/>
    </linearGradient>
    <path id="SWIFR-copy" fill="url(#linearGradient1)" fill-rule="evenodd" stroke="none" d="M 798.514099 51.86113 L 778.966187 40.058228 L 759.787109 28.993057 L 759.787109 51.86113 L 759.787109 74.360214 L 778.966187 62.926117 Z M 759.787109 79.523911 L 778.966187 90.589081 L 798.514099 102.023026 L 798.514099 79.523911 L 798.514099 56.655869 L 778.966187 67.721024 Z M 798.514099 107.186722 L 778.966187 95.383835 L 759.787109 84.318848 L 759.787109 107.186722 L 759.787109 129.685822 L 778.966187 118.251877 Z M 798.514099 162.512329 L 778.966187 150.709595 L 759.787109 139.64444 L 759.787109 162.512329 L 759.787109 185.011429 L 778.966187 173.577484 Z M 759.787109 190.175293 L 778.966187 201.240295 L 798.514099 212.674393 L 798.514099 190.175293 L 798.514099 167.307251 L 778.966187 178.372406 Z M 798.514099 217.838104 L 778.966187 206.035202 L 759.787109 194.970062 L 759.787109 217.838104 L 759.787109 240.337189 L 778.966187 228.903259 Z M 715.527588 162.512329 L 734.706726 173.577484 L 754.254578 185.011429 L 754.254578 162.512329 L 754.254578 139.64444 L 734.706726 150.709595 Z M 754.254578 134.849533 L 734.706726 123.046799 L 715.527588 111.981644 L 715.527588 134.849533 L 715.527588 157.348633 L 734.706726 145.914673 Z M 715.527588 107.186722 L 734.706726 118.251877 L 754.254578 129.685822 L 754.254578 107.186722 L 754.254578 84.318848 L 734.706726 95.383835 Z M 754.254578 24.198151 L 734.706726 12.395416 L 715.527588 1.330261 L 715.527588 24.198151 L 715.527588 46.697266 L 734.706726 35.263306 Z M 671.268188 24.198151 L 690.447266 35.263306 L 709.995178 46.697266 L 709.995178 24.198151 L 709.995178 1.330261 L 690.447266 12.395416 Z M 709.995178 51.86113 L 690.447266 40.058228 L 671.268188 28.993057 L 671.268188 51.86113 L 671.268188 74.360214 L 690.447266 62.926117 Z M 671.268188 134.849533 L 690.447266 145.914673 L 709.995178 157.348633 L 709.995178 134.849533 L 709.995178 111.981644 L 690.447266 123.046799 Z M 709.995178 162.512329 L 690.447266 150.709595 L 671.268188 139.64444 L 671.268188 162.512329 L 671.268188 185.011429 L 690.447266 173.577484 Z M 665.735718 245.5009 L 646.187866 233.698013 L 627.008728 222.633011 L 627.008728 245.5009 L 627.008728 268 L 646.187866 256.566071 Z M 627.008728 217.838104 L 646.187866 228.903259 L 665.735718 240.337189 L 665.735718 217.838104 L 665.735718 194.970062 L 646.187866 206.035202 Z M 665.735718 190.175293 L 646.187866 178.372406 L 627.008728 167.307251 L 627.008728 190.175293 L 627.008728 212.674393 L 646.187866 201.240295 Z M 627.008728 162.512329 L 646.187866 173.577484 L 665.735718 185.011429 L 665.735718 162.512329 L 665.735718 139.64444 L 646.187866 150.709595 Z M 665.735718 134.849533 L 646.187866 123.046799 L 627.008728 111.981644 L 627.008728 134.849533 L 627.008728 157.348633 L 646.187866 145.914673 Z M 627.008728 107.186722 L 646.187866 118.251877 L 665.735718 129.685822 L 665.735718 107.186722 L 665.735718 84.318848 L 646.187866 95.383835 Z M 665.735718 79.523911 L 646.187866 67.721024 L 627.008728 56.655869 L 627.008728 79.523911 L 627.008728 102.023026 L 646.187866 90.589081 Z M 627.008728 51.86113 L 646.187866 62.926117 L 665.735718 74.360214 L 665.735718 51.86113 L 665.735718 28.993057 L 646.187866 40.058228 Z M 608.567261 51.86113 L 589.019409 40.058228 L 569.840271 28.993057 L 569.840271 51.86113 L 569.840271 74.360214 L 589.019409 62.926117 Z M 564.307922 134.849533 L 544.759949 123.046799 L 525.580872 111.981644 L 525.580872 134.849533 L 525.580872 157.348633 L 544.759949 145.914673 Z M 525.580872 51.86113 L 544.759949 62.926117 L 564.307922 74.360214 L 564.307922 51.86113 L 564.307922 28.993057 L 544.759949 40.058228 Z M 564.307922 24.198151 L 544.759949 12.395416 L 525.580872 1.330261 L 525.580872 24.198151 L 525.580872 46.697266 L 544.759949 35.263306 Z M 481.321381 24.198151 L 500.500549 35.263306 L 520.04834 46.697266 L 520.04834 24.198151 L 520.04834 1.330261 L 500.500549 12.395416 Z M 520.04834 51.86113 L 500.500549 40.058228 L 481.321381 28.993057 L 481.321381 51.86113 L 481.321381 74.360214 L 500.500549 62.926117 Z M 481.321381 134.849533 L 500.500549 145.914673 L 520.04834 157.348633 L 520.04834 134.849533 L 520.04834 111.981644 L 500.500549 123.046799 Z M 520.04834 162.512329 L 500.500549 150.709595 L 481.321381 139.64444 L 481.321381 162.512329 L 481.321381 185.011429 L 500.500549 173.577484 Z M 475.789032 245.5009 L 456.241058 233.698013 L 437.062012 222.633011 L 437.062012 245.5009 L 437.062012 268 L 456.241058 256.566071 Z M 437.062012 217.838104 L 456.241058 228.903259 L 475.789032 240.337189 L 475.789032 217.838104 L 475.789032 194.970062 L 456.241058 206.035202 Z M 475.789032 190.175293 L 456.241058 178.372406 L 437.062012 167.307251 L 437.062012 190.175293 L 437.062012 212.674393 L 456.241058 201.240295 Z M 437.062012 162.512329 L 456.241058 173.577484 L 475.789032 185.011429 L 475.789032 162.512329 L 475.789032 139.64444 L 456.241058 150.709595 Z M 475.789032 134.849533 L 456.241058 123.046799 L 437.062012 111.981644 L 437.062012 134.849533 L 437.062012 157.348633 L 456.241058 145.914673 Z M 437.062012 107.186722 L 456.241058 118.251877 L 475.789032 129.685822 L 475.789032 107.186722 L 475.789032 84.318848 L 456.241058 95.383835 Z M 475.789032 79.523911 L 456.241058 67.721024 L 437.062012 56.655869 L 437.062012 79.523911 L 437.062012 102.023026 L 456.241058 90.589081 Z M 437.062012 51.86113 L 456.241058 62.926117 L 475.789032 74.360214 L 475.789032 51.86113 L 475.789032 28.993057 L 456.241058 40.058228 Z M 379.893555 24.198151 L 399.072601 35.263306 L 418.620575 46.697266 L 418.620575 24.198151 L 418.620575 1.330261 L 399.072601 12.395416 Z M 418.620575 51.86113 L 399.072601 40.058228 L 379.893555 28.993057 L 379.893555 51.86113 L 379.893555 74.360214 L 399.072601 62.926117 Z M 379.893555 79.523911 L 399.072601 90.589081 L 418.620575 102.023026 L 418.620575 79.523911 L 418.620575 56.655869 L 399.072601 67.721024 Z M 418.620575 107.186722 L 399.072601 95.383835 L 379.893555 84.318848 L 379.893555 107.186722 L 379.893555 129.685822 L 399.072601 118.251877 Z M 379.893555 134.849533 L 399.072601 145.914673 L 418.620575 157.348633 L 418.620575 134.849533 L 418.620575 111.981644 L 399.072601 123.046799 Z M 418.620575 162.512329 L 399.072601 150.709595 L 379.893555 139.64444 L 379.893555 162.512329 L 379.893555 185.011429 L 399.072601 173.577484 Z M 379.893555 190.175293 L 399.072601 201.240295 L 418.620575 212.674393 L 418.620575 190.175293 L 418.620575 167.307251 L 399.072601 178.372406 Z M 418.620575 217.838104 L 399.072601 206.035202 L 379.893555 194.970062 L 379.893555 217.838104 L 379.893555 240.337189 L 399.072601 228.903259 Z M 322.725067 24.198151 L 341.904114 35.263306 L 361.452087 46.697266 L 361.452087 24.198151 L 361.452087 1.330261 L 341.904114 12.395416 Z M 361.452087 51.86113 L 341.904114 40.058228 L 322.725067 28.993057 L 322.725067 51.86113 L 322.725067 74.360214 L 341.904114 62.926117 Z M 322.725067 79.523911 L 341.904114 90.589081 L 361.452087 102.023026 L 361.452087 79.523911 L 361.452087 56.655869 L 341.904114 67.721024 Z M 361.452087 107.186722 L 341.904114 95.383835 L 322.725067 84.318848 L 322.725067 107.186722 L 322.725067 129.685822 L 341.904114 118.251877 Z M 322.725067 134.849533 L 341.904114 145.914673 L 361.452087 157.348633 L 361.452087 134.849533 L 361.452087 111.981644 L 341.904114 123.046799 Z M 361.452087 162.512329 L 341.904114 150.709595 L 322.725067 139.64444 L 322.725067 162.512329 L 322.725067 185.011429 L 341.904114 173.577484 Z M 322.725067 190.175293 L 341.904114 201.240295 L 361.452087 212.674393 L 361.452087 190.175293 L 361.452087 167.307251 L 341.904114 178.372406 Z M 361.452087 217.838104 L 341.904114 206.035202 L 322.725067 194.970062 L 322.725067 217.838104 L 322.725067 240.337189 L 341.904114 228.903259 Z M 278.465729 217.838104 L 297.644745 228.903259 L 317.192719 240.337189 L 317.192719 217.838104 L 317.192719 194.970062 L 297.644745 206.035202 Z M 317.192719 190.175293 L 297.644745 178.372406 L 278.465729 167.307251 L 278.465729 190.175293 L 278.465729 212.674393 L 297.644745 201.240295 Z M 234.206207 190.175293 L 253.385239 201.240295 L 272.933197 212.674393 L 272.933197 190.175293 L 272.933197 167.307251 L 253.385239 178.372406 Z M 272.933197 217.838104 L 253.385239 206.035202 L 234.206207 194.970062 L 234.206207 217.838104 L 234.206207 240.337189 L 253.385239 228.903259 Z M 228.673843 245.5009 L 209.125885 233.698013 L 189.946854 222.633011 L 189.946854 245.5009 L 189.946854 268 L 209.125885 256.566071 Z M 189.946854 217.838104 L 209.125885 228.903259 L 228.673843 240.337189 L 228.673843 217.838104 L 228.673843 194.970062 L 209.125885 206.035202 Z M 228.673843 190.175293 L 209.125885 178.372406 L 189.946854 167.307251 L 189.946854 190.175293 L 189.946854 212.674393 L 209.125885 201.240295 Z M 189.946854 162.512329 L 209.125885 173.577484 L 228.673843 185.011429 L 228.673843 162.512329 L 228.673843 139.64444 L 209.125885 150.709595 Z M 228.673843 134.849533 L 209.125885 123.046799 L 189.946854 111.981644 L 189.946854 134.849533 L 189.946854 157.348633 L 209.125885 145.914673 Z M 189.946854 107.186722 L 209.125885 118.251877 L 228.673843 129.685822 L 228.673843 107.186722 L 228.673843 84.318848 L 209.125885 95.383835 Z M 228.673843 79.523911 L 209.125885 67.721024 L 189.946854 56.655869 L 189.946854 79.523911 L 189.946854 102.023026 L 209.125885 90.589081 Z M 189.946854 51.86113 L 209.125885 62.926117 L 228.673843 74.360214 L 228.673843 51.86113 L 228.673843 28.993057 L 209.125885 40.058228 Z M 171.505386 51.86113 L 151.957413 40.795959 L 132.778397 28.993057 L 132.778397 51.86113 L 132.778397 74.360214 L 151.957413 62.926117 Z M 171.505386 162.512329 L 151.957413 151.447174 L 132.778397 139.64444 L 132.778397 162.512329 L 132.778397 185.011429 L 151.957413 173.577484 Z M 132.778397 190.175293 L 151.957413 201.240295 L 171.505386 212.674393 L 171.505386 190.175293 L 171.505386 167.307251 L 151.957413 179.110138 Z M 171.505386 217.838104 L 151.957413 206.772949 L 132.778397 194.970062 L 132.778397 217.838104 L 132.778397 240.337189 L 151.957413 228.903259 Z M 127.245872 245.5009 L 107.697983 234.435745 L 88.518875 222.633011 L 88.518875 245.5009 L 88.518875 268 L 107.697983 256.566071 Z M 88.518875 217.838104 L 107.697983 228.903259 L 127.245872 240.337189 L 127.245872 217.838104 L 127.245872 194.970062 L 107.697983 206.772949 Z M 88.518875 162.512329 L 107.697983 173.577484 L 127.245872 185.011429 L 127.245872 162.512329 L 127.245872 139.64444 L 107.697983 151.447174 Z M 127.245872 134.849533 L 107.697983 123.784378 L 88.518875 111.981644 L 88.518875 134.849533 L 88.518875 157.348633 L 107.697983 145.914673 Z M 88.518875 51.86113 L 107.697983 62.926117 L 127.245872 74.360214 L 127.245872 51.86113 L 127.245872 28.993057 L 107.697983 40.795959 Z M 127.245872 24.198151 L 107.697983 13.133011 L 88.518875 1.330261 L 88.518875 24.198151 L 88.518875 46.697266 L 107.697983 35.263306 Z M 44.259438 24.198151 L 63.438545 35.263306 L 82.986435 46.697266 L 82.986435 24.198151 L 82.986435 1.330261 L 63.438545 13.133011 Z M 82.986435 51.86113 L 63.438545 40.795959 L 44.259438 28.993057 L 44.259438 51.86113 L 44.259438 74.360214 L 63.438545 62.926117 Z M 82.986435 107.186722 L 63.438545 96.121582 L 44.259438 84.318848 L 44.259438 107.186722 L 44.259438 129.685822 L 63.438545 118.251877 Z M 44.259438 134.849533 L 63.438545 145.914673 L 82.986435 157.348633 L 82.986435 134.849533 L 82.986435 111.981644 L 63.438545 123.784378 Z M 44.259438 245.5009 L 63.438545 256.566071 L 82.986435 268 L 82.986435 245.5009 L 82.986435 222.633011 L 63.438545 234.435745 Z M 0 217.838104 L 19.179108 228.903259 L 38.726997 240.337189 L 38.726997 217.838104 L 38.726997 194.970062 L 19.179108 206.772949 Z M 38.726997 190.175293 L 19.179108 179.110138 L 0 167.307251 L 0 190.175293 L 0 212.674393 L 19.179108 201.240295 Z M 0 107.186722 L 19.179108 118.251877 L 38.726997 129.685822 L 38.726997 107.186722 L 38.726997 84.318848 L 19.179108 96.121582 Z M 38.726997 79.523911 L 19.179108 68.458771 L 0 56.655869 L 0 79.523911 L 0 102.023026 L 19.179108 90.589081 Z M 0 51.86113 L 19.179108 62.926117 L 38.726997 74.360214 L 38.726997 51.86113 L 38.726997 28.993057 L 19.179108 40.795959 Z"/>
</svg>
